<?xml version="1.0" standalone="no"?>
<!DOCTYPE svg PUBLIC "-//W3C//DTD SVG 1.1//EN" "http://www.w3.org/Graphics/SVG/1.1/DTD/svg11.dtd" >
<svg xmlns="http://www.w3.org/2000/svg">
<metadata>Generated by IcoMoon</metadata>
<defs>
<font id="LiftNet" horiz-adv-x="1024">
<font-face units-per-em="1024" ascent="960" descent="-64" />
<missing-glyph horiz-adv-x="1024" />
<glyph unicode="&#x20;" horiz-adv-x="512" d="" />
<glyph unicode="&#x41;" glyph-name="report-service" horiz-adv-x="1339" d="M1150.464 961.654c-100.706 0-182.626-82.629-182.626-184.162 0-70.577 40.172-131.387 98.304-162.265l-95.665-277.268c-10.319 1.851-20.756 3.23-31.626 3.23-28.042 0-54.272-6.932-77.982-18.314l-216.694 225.674c9.886 22.646 15.596 47.537 15.596 73.807 0 101.534-81.92 184.123-182.626 184.123-100.746 0-182.705-82.59-182.705-184.123 0-56.753 26.191-106.969 66.442-140.8l-92.278-198.538c-24.3 12.052-51.239 19.417-80.069 19.417-100.706 0-182.626-82.511-182.626-184.044s81.92-184.084 182.626-184.084c100.746 0 182.666 82.55 182.666 184.084 0 43.52-15.675 83.062-40.881 114.609l98.816 212.598c15.399-4.254 31.271-7.286 48.010-7.286 46.474 0 88.458 18.117 120.714 47.025l201.925-210.314c-26.821-32.059-43.559-72.901-43.559-117.996 0-101.415 81.881-184.044 182.666-184.044 100.706 0 182.626 82.629 182.626 184.044 0 62.976-31.586 118.548-79.518 151.788l98.383 285.617c3.426-0.197 6.617-1.024 10.082-1.024 100.746 0 182.666 82.668 182.666 184.044 0 101.573-81.92 184.202-182.666 184.202zM188.534 11.855c-58.25 0-105.708 47.734-105.708 106.535 0 58.683 47.419 106.535 105.708 106.535s105.787-47.852 105.787-106.535c0-58.801-47.458-106.535-105.787-106.535zM477.145 515.978c-58.289 0-105.708 47.734-105.708 106.457 0 58.801 47.38 106.614 105.708 106.614 58.25 0 105.708-47.813 105.708-106.614 0-58.722-47.458-106.457-105.708-106.457zM938.89 50.609c-58.289 0-105.708 47.734-105.708 106.457 0 58.801 47.38 106.614 105.708 106.614 58.25 0 105.708-47.813 105.708-106.614-0.039-58.722-47.458-106.457-105.708-106.457zM1150.464 671.074c-58.25 0-105.669 47.774-105.669 106.417 0 58.801 47.38 106.535 105.669 106.535 58.329 0 105.748-47.734 105.748-106.535 0-58.644-47.419-106.417-105.748-106.417z" />
<glyph unicode="&#x42;" glyph-name="reports" horiz-adv-x="812" d="M693.601 863.85h-10.77v69.208c0 12.712-10.275 23.058-23.022 23.058s-23.093-10.346-23.093-23.058v-69.208h-207.554v69.208c0 12.712-10.311 23.058-23.058 23.058s-23.058-10.346-23.058-23.058v-69.208h-207.59v69.208c0 12.712-10.346 23.058-23.093 23.058-12.712 0-23.058-10.346-23.058-23.058v-69.208h-10.77c-57.697 0-104.519-47.704-104.519-106.602v-709.42c0-58.827 46.822-106.567 104.519-106.567h575.064c57.768 0 104.554 47.74 104.554 106.567v709.455c0 58.898-46.822 106.567-104.554 106.567zM706.136-12.306h-600.099c-25.459 0-46.151 20.939-46.151 46.751v736.256c0 25.882 20.657 46.822 46.151 46.822h23.27v-68.961c0-12.747 10.311-23.058 23.058-23.058s23.093 10.311 23.093 23.058v68.961h207.554v-68.961c0-12.747 10.311-23.058 23.058-23.058s23.058 10.311 23.058 23.058v68.961h207.554v-68.961c0-12.747 10.346-23.058 23.093-23.058s23.022 10.311 23.022 23.058v68.961h23.305c25.459 0 46.151-20.939 46.151-46.822v-183.578h-692.118v-46.151h692.153v-506.527c0-25.812-20.692-46.751-46.151-46.751z" />
<glyph unicode="&#x43;" glyph-name="security" horiz-adv-x="883" d="M843.529 789.522c-77.824 0-146.326 61.652-147.456 137.534-0.282 16.666-14.159 30.155-31.285 30.155h-463.943c-17.090 0-28.849-13.489-29.131-30.155-1.13-75.847-63.206-137.604-141.030-137.604-17.231 0-26.977-13.63-26.977-30.402v-435.906c0-258.048 407.164-380.751 424.678-385.836 2.931-0.883 1.695-1.306 4.696-1.306 3.743 0 11.723 0.636 15.289 1.942 17.408 6.426 430.68 158.967 430.68 384.953v436.118c0 16.772-18.291 30.508-35.522 30.508zM425.772 3.761c-84.957 29.343-359.565 138.24-359.565 319.347v108.191h359.565v-427.538zM425.772 461.806h-359.565v269.1c78.177 13.1 148.515 73.94 163.098 165.323h196.431v-434.423zM816.516 322.895c0-141.453-239.016-268.323-359.495-317.546v425.949h359.495v-108.403zM816.516 461.806h-359.495v434.388h179.306c14.618-91.383 86.334-152.223 180.189-165.323v-269.065zM272.419 124.698c2.295-1.095 4.661-1.66 7.062-1.66 5.72 0 11.193 3.143 13.983 8.404 3.884 7.556 0.777 16.666-6.991 20.48-54.343 26.589-96.256 64.053-121.079 108.191-4.131 7.415-13.63 10.134-21.222 6.073-7.556-4.061-10.311-13.312-6.179-20.657 27.825-49.646 74.364-91.454 134.426-120.832z" />
<glyph unicode="&#x44;" glyph-name="service" d="M969.234 839.521l-64.547 64.583c-35.31 35.275-82.202 54.731-132.131 54.731-49.858 0-96.786-19.456-132.096-54.731l-585.728-585.728c-35.31-35.275-54.731-82.202-54.731-132.096 0-49.929 19.421-96.821 54.731-132.131l64.583-64.547c35.275-35.31 82.202-54.766 132.131-54.766s96.821 19.456 132.096 54.766l585.693 585.693c35.31 35.31 54.766 82.202 54.766 132.096 0 49.929-19.456 96.821-54.766 132.131zM926.473 618.090l-585.728-585.728c-23.87-23.87-55.543-37.005-89.3-37.005s-65.465 13.135-89.3 37.005l-64.583 64.547c-23.87 23.87-37.005 55.578-37.005 89.335 0 33.721 13.135 65.465 37.005 89.3l585.693 585.763c23.87 23.834 55.578 36.97 89.3 36.97 33.757 0 65.465-13.135 89.335-36.97l64.583-64.618c23.834-23.87 36.97-55.578 36.97-89.3s-13.135-65.43-36.97-89.3zM571.533 657.214c-5.862 5.967-15.466 6.038-21.398 0.141s-6.003-15.466-0.106-21.398l162.675-164.617c2.966-3.001 6.886-4.484 10.77-4.484s7.733 1.448 10.699 4.378c5.932 5.862 6.003 15.466 0.071 21.363l-162.71 164.617zM314.191 399.907c-5.862 5.932-15.431 6.038-21.398 0.106-5.932-5.862-6.003-15.466-0.106-21.398l162.71-164.582c2.966-3.001 6.85-4.52 10.77-4.52 3.849 0 7.698 1.448 10.664 4.378 5.932 5.862 6.003 15.466 0.106 21.398l-162.745 164.617zM508.716 351.426c-10.982 0-19.88-8.898-19.88-19.88s8.898-19.844 19.88-19.844 19.844 8.898 19.844 19.844c0.035 10.982-8.863 19.88-19.844 19.88zM614.682 472.47c-10.982 0-19.844-8.898-19.844-19.844s8.898-19.844 19.844-19.844 19.844 8.898 19.844 19.844-8.863 19.844-19.844 19.844zM402.75 417.633c10.982 0 19.88 8.898 19.88 19.844s-8.898 19.844-19.88 19.844-19.844-8.898-19.844-19.844 8.898-19.844 19.844-19.844zM508.716 578.436c-10.982 0-19.88-8.898-19.88-19.844s8.898-19.844 19.88-19.844 19.844 8.898 19.844 19.844-8.863 19.844-19.844 19.844z" />
<glyph unicode="&#x45;" glyph-name="settings" horiz-adv-x="989" d="M557.056 6.727c-43.961-5.862-97.845-9.71-162.428-9.71-218.748 0-315.886 44.173-315.886 60.946 0 129.483 83.862 246.749 206.248 291.452 33.192-29.873 71.221-45.586 110.98-45.586 38.841 0 76.623 15.925 110.274 46.468 22.246-8.333 43.185-19.068 62.535-31.885 20.303 22.034 51.871 26.342 66.878 27.048-26.977 22.175-57.203 40.783-89.971 54.978 66.948 88.982 108.65 221.466 108.65 305.964 0 138.063-115.959 250.456-258.366 250.456-142.477 0-258.436-112.393-258.436-250.456 0-84.604 41.807-217.335 108.968-306.353-137.569-57.768-230.647-193.183-230.647-342.087-0.035-113.17 289.933-121.962 378.809-121.962 45.338 0 143.078 2.295 227.928 19.633-40.607 7.945-59.145 37.817-65.536 51.094zM200.457 706.33c0 104.448 87.711 189.44 195.513 189.44s195.443-84.992 195.443-189.44c0-118.431-100.493-338.485-195.443-338.485-95.055 0-195.513 220.089-195.513 338.485zM926.861 206.724c-3.107 9.498-7.839 18.856-12.747 28.178 14.195 22.705 11.97 50.353-6.78 68.749l-0.706 0.636c-10.522 10.417-24.717 16.066-40.007 16.066-10.84 0-21.61-2.825-31.038-8.333-9.287 4.767-18.997 8.757-28.954 11.864-6.25 25.988-27.648 43.997-53.707 43.997h-1.306c-26.412 0-49.011-18.361-55.79-43.926-9.746-3.072-19.385-6.921-28.531-11.652-9.852 5.226-20.868 8.086-31.815 8.086-15.183 0-28.849-5.297-38.7-15.042l-0.883-1.024c-17.126-16.843-19.068-44.067-5.967-67.302-5.226-9.781-9.181-20.198-12.641-31.638-25.777-7.768-43.114-28.954-43.114-52.93v-1.271c0-23.905 17.302-44.985 43.185-52.648 3.319-10.628 6.815-20.868 11.9-30.438-12.782-23.481-10.169-51.977 6.956-68.785l1.201-1.236c9.463-9.357 22.422-14.477 36.476-14.477 10.982 0 22.21 3.037 32.274 8.616 9.852-5.049 20.056-9.251 30.614-12.5 7.91-25.423 30.226-43.714 54.837-43.714h1.306c24.399 0 45.515 17.69 52.895 43.467 10.664 3.319 21.010 7.274 30.897 12.465 9.71-5.791 20.621-9.393 31.391-9.393 14.265 0 27.789 5.967 37.959 15.854l0.918 1.448c18.891 18.538 21.751 47.492 7.874 70.268 4.802 9.11 9.039 18.22 12.006 27.048 26.377 6.073 46.009 27.93 46.009 53.954v1.271c0 26.165-19.633 48.163-46.009 54.343zM931.346 151.887c0-21.080-15.784-38.771-37.005-43.75-2.401-7.168-5.862-14.442-9.71-21.786 11.229-18.538 8.934-41.984-6.285-57.062l-0.742-1.13c-8.157-8.086-19.068-12.959-30.508-12.959-8.651 0-17.443 3.037-25.318 7.733-7.98-4.202-16.243-7.45-24.858-10.063-5.862-20.939-22.916-35.275-42.549-35.275h-1.059c-19.809 0-37.747 14.795-44.103 35.416-8.474 2.613-16.702 5.967-24.611 10.063-8.121-4.484-17.126-6.956-25.953-6.956-11.335 0-21.786 4.167-29.414 11.723l-0.918 0.953c-13.842 13.736-15.89 36.758-5.614 55.861-4.096 7.733-6.886 15.925-9.569 24.647-20.798 6.25-34.675 23.305-34.675 42.62v1.059c0 19.456 13.912 36.546 34.604 42.902 2.825 9.251 6.003 17.726 10.24 25.635-10.628 18.856-9.004 40.925 4.802 54.66l0.706 0.742c7.839 7.804 18.891 12.182 31.038 12.182 8.863 0 17.69-2.26 25.635-6.497 7.415 3.708 15.078 6.886 22.952 9.393 5.438 20.762 23.623 35.663 44.879 35.663h1.059c21.010 0 38.206-14.618 43.255-35.699 7.98-2.507 15.819-5.756 23.305-9.604 7.592 4.449 16.207 6.815 24.929 6.815 12.323 0 23.729-4.696 32.203-13.030l0.565-0.494c15.078-14.972 16.914-37.429 5.473-55.861 3.919-7.45 7.804-15.113 10.275-22.81 21.222-5.014 37.005-22.81 37.005-44.032v-1.059zM750.663 225.156c-40.96 0-74.364-32.839-74.364-73.234s33.404-73.234 74.364-73.234c41.066 0 74.399 32.839 74.399 73.234s-33.333 73.234-74.399 73.234zM750.663 110.574c-23.164 0-41.949 18.573-41.949 41.348 0 22.81 18.785 41.313 41.949 41.313 23.199 0 41.984-18.467 41.984-41.313 0-22.74-18.785-41.348-41.984-41.348z" />
<glyph unicode="&#x46;" glyph-name="stranded" horiz-adv-x="736" d="M353.504 626.496c-29.344 0-53.12-24.384-53.12-54.496s23.776-54.496 53.12-54.496 53.12 24.384 53.12 54.496-23.776 54.496-53.12 54.496zM665.472 775.264h-267.712v148.736c0 16.448-13.344 29.76-29.76 29.76-16.448 0-29.76-13.312-29.76-29.76v-148.736h-267.744c-32.832 0-59.488-26.624-59.488-59.488v-713.984c0-32.832 26.656-59.488 59.488-59.488h594.976c32.864 0 59.488 26.656 59.488 59.488v713.952c0 32.896-26.624 59.52-59.488 59.52zM367.936 1.792c0.928 78.656 14.080 108.832 14.080 108.832l53.12 60.832c14.272 14.624 31.136-28.928 31.136-28.928l71.456-140.736h-169.792zM665.472 61.248c0-32.8-26.592-59.456-59.488-59.456h-0.544c-0.448 13.088-7.712 25.088-7.712 25.088l-85.152 200.736v95.744c0 38.56-41.12 101.056-41.12 101.056-5.184 21.248 18.112 5.312 18.112 5.312l20.704-16.32c20.064-13.312 23.328-20.928 23.328-20.928l1.28-94.688c0-8 27.264-17.312 27.264-17.312 15.872 0 12.608 23.936 12.608 23.936s0 112 0 125.312c0 13.248-17.792 23.904-17.792 23.904l-122.752 58.176c-28.544 10.656-51.84-7.968-51.84-7.968-46.656-15.968-56.032-68.8-56.032-68.8 2.592-47.872-51.84-85.088-51.84-85.088l-46.656-26.592c-15.552-5.344-5.216-29.248-5.216-29.248 5.216-15.936 33.696-5.312 33.696-5.312l51.84 19.936c44.064 23.936 41.472 46.528 41.472 46.528 10.336 15.968 25.952-2.656 25.952-2.656l12.928-74.432v-26.624c-77.728-90.4-82.24-180.8-82.24-180.8v-68.96h-176.288c-32.832 0-59.488 26.656-59.488 59.456v595.008c0 32.864 26.656 59.488 59.488 59.488h475.968c32.896 0 59.488-26.624 59.488-59.488v-595.008zM159.744 656.256c-16.448 0-29.76-13.312-29.76-29.76v-59.488c0-16.448 13.312-29.76 29.76-29.76s29.728 13.312 29.728 29.76v59.488c0 16.448-13.28 29.76-29.728 29.76zM159.744 507.488c-16.448 0-29.76-13.312-29.76-29.76s13.344-29.728 29.76-29.728 29.728 13.312 29.728 29.76-13.28 29.728-29.728 29.728z" />
<glyph unicode="&#x47;" glyph-name="user" horiz-adv-x="742" d="M516.767 402.061c64.335 88.629 104.377 220.654 104.377 304.834 0 137.569-111.086 249.468-247.667 249.468s-247.702-111.934-247.702-249.468c0-84.286 40.148-216.523 104.589-305.152-131.884-57.556-221.255-192.265-221.255-340.533 0-112.746 277.892-121.503 363.061-121.503s363.061 8.757 363.061 121.503c0.035 147.844-88.17 282.589-218.465 340.851zM373.478 895.665c103.318 0 187.357-84.674 187.357-188.769 0-117.866-96.327-337.108-187.357-337.108-91.065 0-187.357 219.242-187.357 337.108 0 104.060 84.039 188.769 187.357 188.769zM372.206 0.477c-209.673 0-302.751 43.997-302.751 60.769 0 128.847 80.402 245.689 197.667 290.216 31.85-29.802 68.255-45.444 106.39-45.444 37.252 0 73.446 15.925 105.719 46.327 116.171-45.162 195.796-162.286 195.796-291.098-0.035-16.772-93.149-60.769-302.822-60.769z" />
<glyph unicode="&#x48;" glyph-name="wallet" horiz-adv-x="1095" d="M981.31 475.118h-66.454v149.363c0 61.758-56.956 112.004-119.384 112.004h-46.963c-9.004 124.716-113.064 223.479-240.040 223.479s-231.071-98.763-240.11-223.479h-161.262c-62.429 0-107.096-50.247-107.096-112.004v-574.005c0-63.1 44.668-114.441 107.096-114.441h688.375c62.429 0 119.384 51.341 119.384 114.441v130.578h66.454c62.535 0 113.24 50.706 113.24 113.24v67.584c0 62.535-50.706 113.24-113.24 113.24zM508.469 894.605c90.818 0 164.935-69.597 173.868-158.155h-347.701c8.898 88.558 82.979 158.155 173.833 158.155zM865.209 34.834c0-26.624-28.072-49.152-54.025-49.152h-719.766c-25.953 0-41.737 22.528-41.737 49.152v605.325c0 26.13 14.901 46.645 41.737 46.645h206.354c0.847-0.035 1.554-0.459 2.401-0.459s1.554 0.424 2.401 0.494h411.825c0.812-0.071 1.518-0.494 2.366-0.494s1.554 0.424 2.366 0.494h76.341c26.836 0 59.886-10.699 69.738-46.645v-165.076h-114.829c-62.535 0-113.24-50.706-113.24-113.205v-67.584c0-62.535 50.706-113.24 113.24-113.24h114.829v-146.255zM1044.868 278.616c0-26.447-21.433-47.881-47.846-47.881h-262.321c-26.447 0-47.881 21.433-47.881 47.881v102.859c0 26.447 21.433 47.881 47.881 47.881h262.321c26.412 0 47.846-21.433 47.846-47.881v-102.859zM784.878 360.607c-17.302 0-31.356-13.983-31.356-31.32 0-17.267 14.018-31.32 31.356-31.32 17.231 0 31.32 14.018 31.32 31.32-0.035 17.337-14.089 31.32-31.32 31.32z" />
<glyph unicode="&#x49;" glyph-name="refresh" d="M1009.847 506.002h-67.767c3.438-21.943 5.705-44.215 5.705-67.072 0-240.677-195.109-435.785-435.785-435.785-240.713 0-435.822 195.109-435.822 435.785 0 240.713 195.109 435.822 435.822 435.822 102.693 0 196.681-35.95 274.542-97.317l-138.533-14.482 6.802-62.171 234.057 22.345-17.737 236.8-65.902-6.656 9.216-113.189c-88.247 64.329-190.72 101.669-302.482 101.669-277.723 0-502.857-225.134-502.857-502.857s225.17-502.821 502.894-502.821 502.857 225.134 502.857 502.857c0 22.784-2.085 45.056-5.010 67.072zM819.31 780.873l-0.439-0.037v5.157l0.439-5.12z" />
<glyph unicode="&#x61;" glyph-name="admin" horiz-adv-x="742" d="M516.767 402.061c64.335 88.629 104.377 220.654 104.377 304.834 0 137.569-111.086 249.468-247.667 249.468s-247.702-111.934-247.702-249.468c0-84.286 40.148-216.523 104.589-305.152-131.884-57.556-221.255-192.265-221.255-340.533 0-112.746 277.892-121.503 363.061-121.503s363.061 8.757 363.061 121.503c0.035 147.844-88.17 282.589-218.465 340.851zM373.478 895.665c103.318 0 187.357-84.674 187.357-188.769 0-117.866-96.327-337.108-187.357-337.108-91.065 0-187.357 219.242-187.357 337.108 0 104.060 84.039 188.769 187.357 188.769zM372.206 0.477c-209.673 0-302.751 43.997-302.751 60.769 0 128.847 80.402 245.689 197.667 290.216 31.85-29.802 68.255-45.444 106.39-45.444 37.252 0 73.446 15.925 105.719 46.327 116.171-45.162 195.796-162.286 195.796-291.098-0.035-16.772-93.149-60.769-302.822-60.769z" />
<glyph unicode="&#x62;" glyph-name="broadcast" d="M632.55 744.077c-11.229 0-22.634-5.685-34.074-17.020l-175.704-111.439h-133.049c-36.158 0-61.405-27.577-61.405-67.019v-178.67c0-39.406 22.987-80.19 61.405-80.19h122.138l186.827-116.206c9.993-9.852 20.48-14.901 31.285-14.901 12.818 0 23.905 7.097 30.367 19.456 4.273 8.121 6.426 18.397 6.426 30.402v490.319c0 33.404-18.432 45.268-34.216 45.268zM272.172 369.894v178.67c0 10.77 3.037 23.587 17.549 23.587h114.017v-238.98h-114.017c-8.369 0-17.549 19.244-17.549 36.723zM622.945 210.714l-178.423 111.051c1.766 3.143 3.037 6.568 3.037 10.381v246.466c0.035 0.035 0.106 0.035 0.141 0.071l175.245 110.98v-478.95zM512-60.646c-282.765 0-512 229.199-512 512s229.235 512 512 512c282.765 0 512-229.199 512-512s-229.235-512-512-512zM512 930.304c-264.545 0-478.95-214.44-478.95-478.95s214.404-478.985 478.95-478.985c264.545 0 478.95 214.44 478.95 478.95s-214.404 478.985-478.95 478.985z" />
<glyph unicode="&#x63;" glyph-name="certificate" horiz-adv-x="918" d="M769.13-64.212h-620.12c-72.951 0-132.308 58.58-132.308 130.613v762.774c0 72.033 59.357 130.613 132.308 130.613h310.025c13.912 0 25.176-11.264 25.176-25.176v-310.519l72.245 34.11c6.815 3.213 14.689 3.213 21.504 0l72.21-34.11v310.519c0 13.912 11.264 25.176 25.212 25.176h93.749c72.881 0 132.237-58.58 132.237-130.613v-762.774c0-72.033-59.321-130.613-132.237-130.613zM149.010 909.436c-45.162 0-81.92-36.017-81.92-80.26v-762.774c0-44.279 36.758-80.26 81.92-80.26h620.12c45.127 0 81.849 36.017 81.849 80.26v762.774c0 44.279-36.723 80.26-81.849 80.26h-68.573v-300.879c0-13.877-7.38-26.977-19.244-34.286-10.522-6.815-26.2-8.121-38.771-2.26l-75.352 35.593-75.282-35.522c-12.288-5.791-27.26-4.979-38.912 2.189-12.006 7.415-19.174 20.233-19.174 34.322v300.844h-284.813zM242.3 920.488h33.333v-945.788h-33.333v945.788z" />
<glyph unicode="&#x64;" glyph-name="contract" horiz-adv-x="847" d="M719.801-64h-604.054c-61.652 0-103.848 53.601-103.848 113.452v802.216c0 64.194 46.998 108.332 103.848 108.332h318.57c8.474 0 16.561-3.919 22.528-9.993l362.602-364.014c5.862-6.003 16.102-14.336 16.102-22.775v-513.801c0-65.183-57.697-113.417-115.747-113.417zM93.466 918.263c-25.671 0-40.466-19.527-40.466-44.385v-846.707c0-25 13.559-49.47 40.466-49.47h648.58c25.318 0 52.401 24.399 52.401 49.47v522.946l-351.055 368.146h-349.926zM797.943 544.009h-285.519c-52.683 0-88.7 47.21-88.7 98.163v288.38c0 6.426-3.107 12.288 2.79 14.76 5.897 2.436 9.216 1.165 13.806-3.39l370.476-371.5c4.555-4.555 5.12-10.982 2.684-16.949-2.472-6.038-9.145-9.463-15.537-9.463zM455.362 892.239v-250.068c0-33.898 21.327-66.172 57.026-66.172h246.925l-303.951 316.239zM298.973 400.013h-126.729c-8.722 0-15.819 7.168-15.819 16.031 0 8.792 7.097 15.96 15.819 15.96h126.729c8.722 0 15.819-7.168 15.819-15.96 0-8.863-7.097-16.031-15.819-16.031zM520.722 400.013h-158.367c-8.757 0-15.854 7.168-15.854 16.031 0 8.792 7.097 15.96 15.854 15.96h158.367c8.792 0 15.819-7.168 15.819-15.96 0-8.863-7.027-16.031-15.819-16.031zM647.415 400.013h-63.311c-8.757 0-15.819 7.168-15.819 16.031 0 8.792 7.062 15.96 15.819 15.96h63.311c8.792 0 15.89-7.168 15.89-15.96 0-8.863-7.097-16.031-15.89-16.031zM298.973 280.982h-126.729c-8.722 0-15.819 7.133-15.819 15.996s7.097 15.96 15.819 15.96h126.729c8.722 0 15.819-7.097 15.819-15.96s-7.097-15.996-15.819-15.996zM520.722 280.982h-158.367c-8.757 0-15.854 7.133-15.854 15.996s7.097 15.96 15.854 15.96h158.367c8.792 0 15.819-7.097 15.819-15.96s-7.027-15.996-15.819-15.996zM647.415 280.982h-63.311c-8.757 0-15.819 7.133-15.819 15.996s7.062 15.96 15.819 15.96h63.311c8.792 0 15.89-7.097 15.89-15.96s-7.097-15.996-15.89-15.996zM298.973 161.916h-126.729c-8.722 0-15.819 7.097-15.819 15.96s7.097 15.996 15.819 15.996h126.729c8.722 0 15.819-7.133 15.819-15.996s-7.097-15.96-15.819-15.96zM520.722 161.916h-158.367c-8.757 0-15.854 7.097-15.854 15.96s7.097 15.996 15.854 15.996h158.367c8.792 0 15.819-7.133 15.819-15.996s-7.027-15.96-15.819-15.96zM647.415 161.916h-63.311c-8.757 0-15.819 7.097-15.819 15.96s7.062 15.996 15.819 15.996h63.311c8.792 0 15.89-7.133 15.89-15.996s-7.097-15.96-15.89-15.96z" />
<glyph unicode="&#x65;" glyph-name="dollar" horiz-adv-x="1339" d="M1196.229 945.703h-1053.381c-78.848 0-142.769-62.937-142.769-140.524v-712.231c0-77.548 63.921-140.446 142.769-140.446h1053.381c78.887 0 142.769 62.937 142.769 140.446v712.231c0 77.627-63.882 140.524-142.769 140.524zM1271.454 78.297c0-32.847-27.097-59.392-60.377-59.392h-1083.077c-33.319 0-60.416 26.545-60.416 59.392v537.797h1203.87v-537.797zM1271.454 656.62h-1203.87v89.009h1203.87v-89.009zM1271.454 786.156h-1203.87v33.634c0 32.768 27.097 59.392 60.416 59.392h1083.077c33.319 0 60.377-26.624 60.377-59.392v-33.634zM136.428 175.38h82.393c11.343 0 20.598 9.137 20.598 20.244 0 11.225-9.295 20.401-20.598 20.401h-82.393c-11.382 0-20.598-9.137-20.598-20.401-0.039-11.067 9.216-20.244 20.598-20.244zM301.214 175.38h144.187c11.382 0 20.598 9.137 20.598 20.244 0 11.225-9.216 20.401-20.598 20.401h-144.187c-11.382 0-20.638-9.137-20.638-20.401 0-11.067 9.255-20.244 20.638-20.244zM946.294 207.833c-20.598 7.010-34.816 10.476-42.693 10.476-25.324-2.757-38.715-15.399-40.251-37.849 0-35.013 44.229-53.996 132.726-56.753v-14.69c-1.615-18.235 3.86-27.294 16.542-27.294 9.531 0 14.218 9.058 14.218 27.294v16.778c86.882 5.632 133.474 44.938 139.815 117.76 1.575 58.998-41.866 98.225-130.363 117.839-3.151 1.378-6.341 2.757-9.452 4.135v71.522c7.916-1.418 18.156-4.175 30.759-8.428 15.754-4.135 27.648-6.223 35.564-6.223 23.71 0 37.061 13.233 40.251 39.897-3.19 28.121-38.676 45.568-106.614 52.657v16.778c0 16.857-4.687 25.246-14.218 25.246-14.178 0-19.771-8.389-16.542-25.246v-16.778c-83.771-12.682-127.212-53.327-130.402-122.014-3.151-54.705 40.29-89.679 130.402-105.157v-90.466c-12.642 0-29.263 3.466-49.743 10.516zM1026.836 277.228c25.246-8.389 38.715-19.692 40.251-33.674-1.536-23.788-15.045-38.558-40.251-44.071v77.745zM962.875 403.377c0 15.478 10.988 26.033 33.201 31.547v-60.928c-22.174 5.553-33.201 15.399-33.201 29.381z" />
<glyph unicode="&#x66;" glyph-name="expire" horiz-adv-x="953" d="M476.69-64c-258.26 0-468.427 211.933-468.427 472.452s210.167 472.452 468.427 472.452 468.427-211.933 468.427-472.452-210.167-472.452-468.427-472.452zM476.69 818.476c-224.185 0-406.599-183.932-406.599-410.024 0-226.127 182.413-410.059 406.599-410.059s406.599 183.932 406.599 410.059c0 226.092-182.413 410.024-406.599 410.024zM897.624 707.99c-7.945 0-15.819 3.072-21.822 9.11l-80.331 80.825c-12.147 12.147-12.147 31.921-0.071 44.103 12.041 12.217 31.638 12.288 43.714 0.106l80.296-80.825c12.111-12.182 12.147-31.885 0.035-44.138-5.967-6.073-13.912-9.181-21.822-9.181zM566.272 284.266c-7.627 0-15.254 2.86-21.257 8.51l-90.465 85.345c-6.215 5.897-10.628 14.054-10.628 22.669v262.85c0 17.196 13.842 31.179 30.932 31.179 17.055 0 30.897-13.983 30.897-31.179v-249.397l80.825-76.058c12.429-11.794 13.453-31.567 1.695-44.103-6.038-6.532-13.771-9.816-21.998-9.816zM474.854 835.249c-17.090 0-30.932 13.948-30.932 31.179v62.393c0 17.196 13.842 31.179 30.932 31.179 17.055 0 30.897-13.983 30.897-31.179v-62.393c0-17.267-13.806-31.179-30.897-31.179z" />
<glyph unicode="&#x67;" glyph-name="flashlight" d="M994.445 583.415l-327.256 335.201c-8.369 8.651-30.543 31.673-59.851 31.673-20.056 0-47.492-10.275-64.653-60.416-25.247-86.016-66.313-223.938-76.518-253.74l-433.788-413.025c-18.891-19.385-28.813-47.457-27.295-77.188 1.448-28.142 12.818-55.049 31.285-73.94l103.812-106.355c18.679-19.103 43.714-29.625 70.55-29.625 26.977 0 53.248 11.087 71.362 29.661l434.918 414.155c21.928 9.604 138.628 49.611 242.052 83.897 1.695 0.565 3.39 1.306 4.908 2.154 25.847 13.983 50.353 30.932 54.484 59.039 4.378 29.519-17.020 51.377-24.011 58.509zM239.334 11.105c-7.415-7.592-17.867-12.006-28.601-12.006-10.381 0-19.915 3.919-26.942 11.158l-103.812 106.319c-7.698 7.91-12.676 20.092-13.347 32.591-0.6 11.9 2.825 22.563 8.51 28.425l433.329 412.672 163.381-167.3-432.516-411.86zM937.49 522.893c-152.223-50.564-213.027-72.28-238.733-82.838l-173.798 177.999c9.569 27.048 28.919 90.924 76.306 252.292 3.178 9.251 6.038 13.912 7.662 15.996 2.507-1.165 6.991-4.414 14.407-12.076 0.035-0.106 1.059-1.165 1.13-1.165l326.409-334.354c1.801-1.801 3.143-3.354 4.131-4.626-2.931-2.436-8.263-6.073-17.514-11.229zM668.142 783.731c-11.688 11.97-22.599 12.5-29.661 10.84-11.794-2.754-20.833-13.030-26.836-30.473-0.212-0.636-0.353-1.306-0.494-1.907-8.263-39.053-17.796-82.591-19.986-89.971-2.613-5.791-1.589-12.888 3.107-17.69 2.966-3.143 6.921-4.661 10.911-4.661 3.919 0 7.874 1.518 10.876 4.555 4.025 4.131 5.014 5.12 25 100.070 1.518 4.202 2.966 6.744 3.955 8.192 0.388-0.282 0.847-0.742 1.342-1.271l25.741-26.306c6.003-6.144 15.748-6.144 21.786 0 6.003 6.215 6.003 16.172 0 22.351l-25.741 26.271zM868.14 770.489c7.874 0 15.713 3.037 21.751 9.216l21.786 22.316c12.041 12.359 12.041 32.344 0 44.703-12.041 12.253-31.567 12.253-43.538 0l-21.786-22.351c-12.041-12.359-12.041-32.309 0-44.668 6.003-6.179 13.877-9.216 21.786-9.216zM780.959 859.719c7.91 0 15.784 3.107 21.786 9.287l21.786 22.316c12.041 12.288 12.006 32.309 0 44.597-12.041 12.359-31.567 12.359-43.573 0l-21.786-22.316c-12.006-12.359-12.006-32.344 0-44.703 6.038-6.073 13.948-9.181 21.786-9.181zM955.286 681.225c7.91 0 15.748 3.037 21.786 9.251l21.751 22.316c12.076 12.359 12.076 32.309 0 44.668-12.006 12.288-31.532 12.288-43.538 0l-21.786-22.351c-12.041-12.359-12.041-32.274 0-44.632 5.967-6.215 13.877-9.251 21.786-9.251zM481.774 443.445c-5.685-5.791-8.898-13.983-8.898-22.246 0-8.298 3.213-16.525 8.898-22.387 5.862-5.897 13.7-9.181 21.892-9.181 8.015 0 15.996 3.284 21.716 9.181 5.685 6.003 9.11 14.054 9.11 22.387 0 8.227-3.425 16.455-9.11 22.246-11.582 11.794-32.062 11.652-43.608 0z" />
<glyph unicode="&#x68;" glyph-name="home" horiz-adv-x="1170" d="M249.198 471.589h671.963c13.714 0 24.869 11.154 24.869 24.905s-11.154 24.905-24.869 24.905h-671.963c-13.714 0-24.869-11.154-24.869-24.905s11.118-24.905 24.869-24.905zM249.198 123.173h671.963c13.714 0 24.869 11.118 24.869 24.905 0 13.714-11.154 24.869-24.869 24.869h-671.963c-13.714 0-24.869-11.154-24.869-24.869 0-13.787 11.118-24.905 24.869-24.905zM1043.273 947.054h-916.224c-69.925 0-126.647-57.381-126.647-128.219v-135.461c0-0.073-0.037-0.183-0.037-0.256s0.037-0.183 0.037-0.256v-605.696c0-70.802 56.722-128.183 126.647-128.183h916.261c69.925 0 126.647 57.381 126.647 128.183v741.669c-0.037 70.802-56.759 128.219-126.683 128.219zM1120.219 123.173c0-68.754-55.698-124.453-124.416-124.453h-821.248c-68.718 0-124.453 55.698-124.453 124.453v547.511h1070.117v-547.511zM1120.219 695.589h-1070.117v74.642c0 68.718 55.698 124.416 124.453 124.416h821.248c68.718 0 124.416-55.698 124.416-124.416v-74.642zM249.198 297.362h671.963c13.714 0 24.869 11.154 24.869 24.905s-11.154 24.905-24.869 24.905h-671.963c-13.714 0-24.869-11.154-24.869-24.905s11.118-24.905 24.869-24.905z" />
<glyph unicode="&#x69;" glyph-name="information" horiz-adv-x="1243" d="M747.776 959.488c-19.566 0-41.472-5.998-66.889-18.286l-1.353-0.768c-136.777-75.154-357.742-195.511-393.691-212.297h-122.843c-81.737 0-157.879-76.215-157.879-159.927v-252.562c0-78.482 70.327-139.922 157.879-139.922h124.379c34.633-13.312 256.439-129.646 391.899-201.911l5.303-2.158c28.782-8.96 52.078-14.958 72.082-14.958 30.208 0 45.787 14.226 54.272 26.149 10.825 15.177 14.994 35.767 14.994 64.878v794.185l0.914 3.621c0.293 19.237 1.865 64.439-25.563 92.526-13.678 14.007-32.219 21.431-53.504 21.431zM278.711 237.056h-115.712c-46.885 0-97.061 29.403-97.061 78.555v252.562c0 49.701 48.933 98.523 97.061 98.523h115.712v-429.641zM766.866 47.726c0-23.296-4.206-28.855-4.133-28.855-0.146-0.073-1.755-0.768-6.071-0.768-12.581 0-32.841 5.632-51.493 11.374-279.040 148.809-365.861 190.976-396.032 202.898v439.698c29.403 13.019 114.981 58.039 398.811 214.089 20.517 9.911 32.951 11.959 39.863 11.959 7.058 0 9.253-2.231 10.167-3.182 9.545-9.801 9.106-38.949 8.96-48.53l-0.073-798.683zM1201.847 470.089h-240.713c-13.275 0-24.064-11.081-24.064-24.686s10.789-24.649 24.064-24.649h240.713c13.275 0 24.027 11.045 24.027 24.649s-10.715 24.686-24.027 24.686zM966.29 676.279l206.885 126.062c11.41 6.949 15.177 22.089 8.375 33.792-6.875 11.703-21.577 15.579-32.987 8.594l-206.885-126.025c-11.41-6.949-15.177-22.089-8.375-33.792 6.766-11.739 21.541-15.543 32.987-8.631zM1189.998 76.544l-215.479 124.928c-11.886 6.875-27.246 3.035-34.304-8.521-7.095-11.593-3.218-26.587 8.704-33.499l215.442-124.928c11.922-6.875 27.282-3.072 34.341 8.485 7.095 11.63 3.145 26.624-8.704 33.536z" />
<glyph unicode="&#x6a;" glyph-name="install" horiz-adv-x="1061" d="M749.166 770.999h-437.797c-60.416 0-94.427-61.879-94.427-117.248v-435.785c0-54.747 32.256-92.965 94.427-92.965h437.797c62.135 0 116.736 38.217 116.736 92.965v435.785c0.037 55.369-56.283 117.248-116.736 117.248zM802.597 217.966c0-26.039-37.632-29.915-53.431-29.915h-437.797c-15.762 0-31.086 3.877-31.086 29.915v435.785c0 26.331 10.569 54.199 31.086 54.199h437.797c20.553 0 53.431-27.904 53.431-54.199v-435.785zM949.76 644.937h79.141c17.481 0 31.634 14.153 31.634 31.488 0 17.445-14.19 31.525-31.634 31.525h-79.141c-17.518 0-31.671-14.117-31.671-31.525 0-17.371 14.153-31.488 31.671-31.488zM1028.901 534.638h-79.141c-17.518 0-31.671-14.117-31.671-31.488s14.19-31.488 31.671-31.488h79.141c17.481 0 31.634 14.117 31.634 31.488s-14.19 31.488-31.634 31.488zM1028.901 377.125h-79.141c-17.518 0-31.671-14.117-31.671-31.525 0-17.371 14.19-31.488 31.671-31.488h79.141c17.481 0 31.634 14.153 31.634 31.488 0 17.408-14.19 31.525-31.634 31.525zM1028.901 235.301h-79.141c-17.518 0-31.671-14.080-31.671-31.488s14.19-31.488 31.671-31.488h79.141c17.481 0 31.634 14.117 31.634 31.488 0 17.408-14.19 31.488-31.634 31.488zM296.119 818.249c17.481 0 31.671 14.117 31.671 31.488v78.811c0 17.408-14.19 31.488-31.671 31.488s-31.671-14.117-31.671-31.488v-78.775c0-17.408 14.19-31.525 31.671-31.525zM454.4 818.249c17.481 0 31.671 14.117 31.671 31.488v78.811c0 17.408-14.19 31.488-31.671 31.488s-31.671-14.117-31.671-31.488v-78.775c0-17.408 14.19-31.525 31.671-31.525zM628.517 818.249c17.481 0 31.671 14.117 31.671 31.488v78.811c0 17.408-14.226 31.488-31.671 31.488s-31.671-14.117-31.671-31.488v-78.775c-0.037-17.408 14.19-31.525 31.671-31.525zM770.962 818.249c17.481 0 31.634 14.117 31.634 31.488v78.811c0 17.408-14.19 31.488-31.634 31.488-17.518 0-31.634-14.117-31.634-31.488v-78.775c0-17.408 14.153-31.525 31.634-31.525zM296.119 77.751c-17.481 0-31.671-14.117-31.671-31.488v-78.775c0-17.408 14.19-31.488 31.671-31.488s31.671 14.117 31.671 31.488v78.775c-0.037 17.371-14.19 31.488-31.671 31.488zM454.4 77.751c-17.481 0-31.671-14.117-31.671-31.488v-78.775c0-17.408 14.19-31.488 31.671-31.488s31.671 14.117 31.671 31.488v78.775c0 17.371-14.19 31.488-31.671 31.488zM628.517 77.751c-17.481 0-31.671-14.117-31.671-31.488v-78.775c0-17.408 14.226-31.488 31.671-31.488s31.671 14.117 31.671 31.488v78.775c0 17.371-14.226 31.488-31.671 31.488zM770.962 77.751c-17.518 0-31.634-14.117-31.634-31.488v-78.775c0-17.408 14.153-31.488 31.634-31.488s31.634 14.117 31.634 31.488v78.775c0 17.371-14.153 31.488-31.634 31.488zM110.848 707.95h-79.141c-17.481 0-31.671-14.117-31.671-31.525 0-17.371 14.19-31.488 31.671-31.488h79.141c17.481 0 31.671 14.153 31.671 31.488-0.037 17.445-14.19 31.525-31.671 31.525zM110.848 534.638h-79.141c-17.481 0-31.671-14.117-31.671-31.488s14.19-31.488 31.671-31.488h79.141c17.481 0 31.671 14.117 31.671 31.488s-14.19 31.488-31.671 31.488zM110.848 377.125h-79.141c-17.481 0-31.671-14.117-31.671-31.525 0-17.371 14.19-31.488 31.671-31.488h79.141c17.481 0 31.671 14.153 31.671 31.488-0.037 17.408-14.19 31.525-31.671 31.525zM110.848 235.301h-79.141c-17.481 0-31.671-14.080-31.671-31.488s14.19-31.488 31.671-31.488h79.141c17.481 0 31.671 14.117 31.671 31.488-0.037 17.408-14.19 31.488-31.671 31.488z" />
<glyph unicode="&#x6b;" glyph-name="logout" horiz-adv-x="918" d="M643.849 788.286v-5.191c-3.46 1.236-6.991 2.189-10.876 2.189-18.008 0-32.627-14.583-32.627-32.556 0-18.008 14.618-32.556 32.627-32.556 3.849 0 7.415 0.953 10.876 2.189v-6.744c116.665-64.9 195.725-189.158 195.725-331.988 0-209.814-170.372-379.939-380.54-379.939s-380.54 170.090-380.54 379.939c0 142.83 79.060 267.087 195.725 331.988v6.744c3.425-1.236 7.027-2.189 10.876-2.189 18.008 0 32.591 14.548 32.591 32.556 0 17.973-14.583 32.556-32.591 32.556-3.849 0-7.45-0.953-10.876-2.189v5.191c-153.847-70.162-260.979-224.75-260.979-404.657 0-245.795 199.574-445.052 445.793-445.052 246.254 0 445.793 199.292 445.793 445.052 0 179.871-107.096 334.46-260.979 404.657zM459.034 494.327c18.044 0 32.627 14.618 32.627 32.627v397.983c0 18.008-14.583 32.556-32.627 32.556s-32.627-14.548-32.627-32.556v-397.983c0-18.008 14.583-32.627 32.627-32.627z" />
<glyph unicode="&#x6c;" glyph-name="maintain" d="M915.456 955.586h-806.912c-51.765 0-104.13-52.33-104.13-104.13v-806.912c0-51.8 52.365-104.13 104.13-104.13h832.971c51.73 0 78.071 52.33 78.071 104.13v832.971c0 51.73-52.33 78.071-104.13 78.071zM964.89 88.788c0-51.765-7.45-93.078-75.458-96.327h-728.841c-51.73 0-104.095 52.33-104.095 104.095v702.852c0 51.765 26.306 104.095 78.071 104.095h754.865c51.73 0 75.458-44.562 75.458-96.327v-718.389zM369.699 826.068h-218.677c-8.616 0-15.607-7.027-15.607-15.642v-218.606c0-8.616 6.991-15.642 15.607-15.642 8.651 0 15.607 7.027 15.607 15.642v203.034h203.034c8.616 0 15.607 6.956 15.607 15.572s-6.956 15.642-15.572 15.642zM879.051 318.446c-8.616 0-15.607-6.991-15.607-15.607v-203.034h-203.034c-8.616 0-15.607-6.991-15.607-15.607s6.991-15.607 15.607-15.607h218.642c8.616 0 15.607 6.991 15.607 15.607v218.642c0 8.616-6.991 15.607-15.607 15.607z" />
<glyph unicode="&#x6d;" glyph-name="menu" horiz-adv-x="1061" d="M86.967 381.513h678.766c39.57 0 71.57 31.927 71.57 71.241 0 39.278-32 71.168-71.57 71.168h-678.766c-39.461 0-71.497-31.89-71.497-71.168 0.037-39.351 32.037-71.241 71.497-71.241zM91.026 502.053h670.683c29.623 0 53.541-22.126 53.541-49.335 0-27.282-23.918-49.371-53.541-49.371h-670.683c-29.623 0-53.577 22.089-53.577 49.371 0 27.209 23.991 49.335 53.577 49.335zM86.821 766.025h887.296c39.278 0 70.985 31.781 70.985 70.875 0 39.131-31.707 70.875-70.985 70.875h-887.296c-39.168 0-70.985-31.707-70.985-70.875 0-39.095 31.817-70.875 70.985-70.875zM86.784 885.467h887.479c27.209 0 49.335-22.089 49.335-49.335s-22.089-49.298-49.335-49.298h-887.479c-27.246 0-49.335 22.053-49.335 49.298s22.089 49.335 49.335 49.335zM974.117 129.865h-887.296c-39.168 0-70.985-31.707-70.985-70.912 0-39.058 31.817-70.729 70.985-70.729h887.296c39.278 0 70.985 31.634 70.985 70.729 0 39.205-31.707 70.912-70.985 70.912zM974.263 8.923h-887.479c-27.246 0-49.335 22.126-49.335 49.371 0 27.355 22.053 49.225 49.335 49.225h887.479c27.209 0 49.335-21.87 49.335-49.225-0.037-27.209-22.126-49.371-49.335-49.371z" />
<glyph unicode="&#x6e;" glyph-name="message1" d="M915.456 955.586h-806.912c-51.765 0-104.13-52.33-104.13-104.13v-806.912c0-51.8 52.365-104.13 104.13-104.13h832.971c51.73 0 78.071 52.33 78.071 104.13v832.971c0 51.73-52.33 78.071-104.13 78.071zM964.89 88.788c0-51.765-7.45-93.078-75.458-96.327h-728.841c-51.73 0-104.095 52.33-104.095 104.095v702.852c0 51.765 26.306 104.095 78.071 104.095h754.865c51.73 0 75.458-44.562 75.458-96.327v-718.389zM369.699 826.068h-218.677c-8.616 0-15.607-7.027-15.607-15.642v-218.606c0-8.616 6.991-15.642 15.607-15.642 8.651 0 15.607 7.027 15.607 15.642v203.034h203.034c8.616 0 15.607 6.956 15.607 15.572s-6.956 15.642-15.572 15.642zM879.051 318.446c-8.616 0-15.607-6.991-15.607-15.607v-203.034h-203.034c-8.616 0-15.607-6.991-15.607-15.607s6.991-15.607 15.607-15.607h218.642c8.616 0 15.607 6.991 15.607 15.607v218.642c0 8.616-6.991 15.607-15.607 15.607z" />
<glyph unicode="&#x6f;" glyph-name="message2" d="M805.853 726.81h-80.119c-8.298 0-15.007-6.744-15.007-15.042s6.674-15.042 15.007-15.042h80.119c8.298 0 15.007 6.744 15.007 15.042s-6.674 15.042-15.007 15.042zM870.93 856.929h-820.895c-27.577 0-50.035-22.387-50.035-50.035v-820.824c0-27.648 22.457-50.070 50.035-50.070h820.895c27.648 0 49.999 22.422 49.999 50.070v820.824c0 27.648-22.351 50.035-49.999 50.035zM888.479 18.52c0-27.613-22.387-50.035-50.070-50.035h-755.889c-27.613 0-50.035 22.422-50.035 50.035v513.095h855.993v-513.095zM888.479 574.164h-855.993v200.245c0 27.648 22.422 50.070 50.035 50.070h755.889c27.683 0 50.070-22.422 50.070-50.070v-200.245zM635.692 726.81h-540.601c-8.263 0-15.007-6.744-15.007-15.042s6.709-15.042 15.007-15.042h540.601c8.298 0 15.007 6.744 15.007 15.042s-6.709 15.042-15.007 15.042zM971.034 957.069h-820.895c-27.613 0-49.999-22.387-49.999-50.070v-22.457h21.010c4.626 22.846 24.823 40.042 49.011 40.042h768.388c27.613 0 50.035-22.387 50.035-50.035v-768.388c0-24.258-17.196-44.42-40.077-49.011v-21.116h22.528c27.577 0 50.035 22.457 50.035 50.070v820.895c0 27.683-22.457 50.070-50.035 50.070z" />
<glyph unicode="&#x70;" glyph-name="monitor" horiz-adv-x="1207" d="M603.429 824.686c-244.809 3.95-601.381-155.355-601.381-376.686 0-221.403 362.715-373.687 601.381-376.759 211.237 0 601.454 155.355 601.454 376.759-0.037 221.33-356.754 372.846-601.454 376.686zM592.75 112.421c-199.241 0-554.459 168.082-554.459 330.569s306.432 336.933 554.459 330.862c281.563 12.215 569.271-178.871 575.854-341.248 6.107-150.309-376.539-320.183-575.854-320.183zM603.429 660.297c-119.771 0-217.234-97.609-217.234-217.6 0-119.918 97.463-217.563 217.234-217.563 119.881 0 217.307 97.646 217.307 217.563-0.037 119.991-97.463 217.6-217.307 217.6zM603.429 266.569c-96.987 0-175.909 79.067-175.909 176.128 0 97.134 78.885 176.128 175.909 176.128s175.945-78.994 175.945-176.128c0-97.061-78.958-176.128-175.945-176.128zM565.029 480.695h-51.2c-14.117 0-25.6-11.41-25.6-25.563v-51.2c0-14.153 11.483-25.563 25.6-25.563h51.2c14.153 0 25.6 11.41 25.6 25.563v51.2c0 14.153-11.447 25.563-25.6 25.563z" />
<glyph unicode="&#x71;" glyph-name="month-cost" horiz-adv-x="989" d="M984.029 43.555c0-59.427-47.457-107.555-106.072-107.555h-767.258c-58.58 0-106.037 48.128-106.037 107.555v684.738c0 59.427 47.457 107.555 106.037 107.555h767.258c58.615 0 106.072-48.128 106.072-107.555v-684.738zM945.117 750.539c0 25.176-20.092 45.515-44.879 45.515h-811.785c-24.753 0-44.879-20.339-44.879-45.515v-729.265c0-25.141 20.092-45.48 44.879-45.48h811.75c24.788 0 44.879 20.339 44.879 45.48v729.265zM218.854 665.194c-16.878 0-30.579 13.912-30.579 31.038v232.73c0 17.126 13.736 31.038 30.579 31.038 16.914 0 30.614-13.912 30.614-31.038v-232.73c0-17.126-13.665-31.038-30.614-31.038zM754.476 665.194c-16.878 0-30.614 13.912-30.614 31.038v232.73c0 17.126 13.771 31.038 30.614 31.038 16.914 0 30.614-13.912 30.614-31.038v-232.73c0-17.126-13.7-31.038-30.614-31.038zM950.307 541.113h-918.175c-8.474 0-15.325 6.921-15.325 15.501 0 8.545 6.815 15.466 15.325 15.466h918.175c8.439 0 15.289-6.921 15.289-15.466 0-8.58-6.85-15.501-15.289-15.501zM171.149 399.625h650.063c6.109 0 11.017-5.049 11.017-11.193s-4.908-11.123-11.017-11.123h-650.063c-6.109 0-11.017 4.979-11.017 11.123s4.908 11.193 11.017 11.193zM171.149 284.16h650.063c6.109 0 11.017-5.049 11.017-11.193s-4.908-11.158-11.017-11.158h-650.063c-6.109 0-11.017 5.014-11.017 11.158s4.908 11.193 11.017 11.193zM171.149 168.766h650.063c6.109 0 11.017-5.049 11.017-11.193 0-6.215-4.908-11.158-11.017-11.158h-650.063c-6.109 0-11.017 4.979-11.017 11.158-0.035 6.144 4.908 11.193 11.017 11.193z" />
<glyph unicode="&#x72;" glyph-name="new" horiz-adv-x="1499" d="M1452.142 842.935l-5.961 5.998c-25.929 26.002-60.050 40.338-96 40.338-33.975 0-65.682-13.019-89.234-36.681l-553.326-554.569c-42.679-42.825-86.565-216.722-94.939-251.136-2.267-9.362 0.512-19.237 7.314-26.075l5.998-5.998c5.23-5.303 12.251-8.119 19.529-8.119 1.938 0 3.95 0.183 5.925 0.658 35.035 7.753 211.968 48.457 254.866 91.465l553.326 554.569c24.466 24.539 36.754 58.514 34.56 95.598-2.048 34.999-17.371 69.157-42.057 93.952zM637.842 41.545c11.118 41.326 25.051 87.186 38.875 125.147l95.854-93.513c-42.057-10.679-92.489-21.248-134.729-31.634zM855.589 104.082c-7.57-7.534-26.807-15.031-52.041-22.455l-115.931 113.042c9.435 22.821 18.469 40.448 26.039 48.055l34.779 34.779 137.179-137.509c1.024-1.061 2.267-1.719 3.547-2.341l-33.573-33.573zM906.862 155.355c-0.658 1.426-0.585 3.035-1.719 4.206l-81.518 81.701 400.933 401.92c5.376 5.376 5.376 14.153 0 19.529s-14.153 5.376-19.493 0l-400.969-401.883-36.169 36.206 483.035 483.109 35.621-35.694-41.582-41.728c-5.376-5.339-5.376-14.153 0-19.493 2.67-2.706 6.217-4.059 9.765-4.059s7.022 1.353 9.765 4.059l41.582 41.691 81.518-81.701c1.243-1.243 2.706-2.121 4.206-2.779l-484.974-485.083zM1445.339 693.979l-36.206-36.206c-0.695 1.682-0.695 3.584-2.085 4.974l-136.594 136.923 32.951 32.951c14.043 14.043 33.061 21.76 53.577 21.76 22.638 0 44.215-9.070 60.745-25.637l19.639-16.347c17.408-17.371 26.405-38.729 27.758-61.733 1.317-22.528-5.705-42.642-19.785-56.686zM59.282 138.35v646.802c0 27.136 21.723 49.152 48.53 49.152h870.181c26.77 0 48.494-22.016 48.494-49.152v-32.878l50.176 50.139c-12.946 49.847-57.307 86.857-110.592 86.857h-846.336c-63.378 0-114.761-52.078-114.761-116.224v-622.629c0-64.146 51.346-116.224 114.761-116.224h436.955v55.003h-448.878c-26.807 0-48.53 22.016-48.53 49.152zM336.018 447.963c15.25 0 27.575 12.361 27.575 27.611v82.725h82.761c15.25 0 27.575 12.361 27.575 27.575 0 15.25-12.325 27.611-27.575 27.611h-82.761v82.725c0 15.214-12.325 27.575-27.575 27.575s-27.575-12.361-27.575-27.575v-82.761h-82.761c-15.25 0-27.575-12.361-27.575-27.611 0-15.214 12.325-27.575 27.575-27.575h82.761v-82.725c0-15.214 12.325-27.575 27.575-27.575z" />
<glyph unicode="&#x73;" glyph-name="parts" d="M1021.069 709.438c-0.777 33.545-13.771 65.395-35.522 87.322l-128.918 129.942c-21.186 21.363-50.282 33.298-81.991 33.298-33.192 0-65.43-12.888-88.205-35.875l-252.575-253.917c-148.798 43.396-310.908 2.542-421.817-109.25-5.897-5.932-9.181-13.983-9.11-22.351 0.035-8.369 3.46-16.384 9.428-22.21 73.905-72.527 166.841-165.888 257.518-257.589l-245.866-244.171c-12.253-12.147-12.359-31.991-0.318-44.314 6.109-6.25 14.089-9.357 22.14-9.357 7.91 0 15.784 3.001 21.892 9.039l246.042 244.418c47.033-47.669 92.654-93.961 133.402-135.345 51.059-51.836 95.055-96.538 126.305-128.035 5.826-5.862 13.736-9.181 21.998-9.181 8.227 0 16.172 3.319 21.963 9.181 108.685 109.462 150.175 265.569 111.722 413.661l258.754 256c21.928 22.069 33.969 54.413 33.156 88.735zM594.591 18.485c-28.425 28.707-63.7 64.618-103.247 104.766-122.986 124.893-288.662 293.111-412.072 414.897 94.031 79.695 221.926 105.79 339.862 70.444l245.266-245.372c36.476-120.691 10.346-249.291-69.809-344.735zM943.951 665.017l-247.949-249.75-208.19 210.273c0.388 3.107 0.353 6.073-0.141 9.075l242.759 244.595c11.229 11.299 27.366 17.832 44.244 17.832 15.042 0 28.531-5.226 37.994-14.76l128.918-129.907c10.417-10.487 16.878-27.118 17.267-44.456 0.459-17.302-4.979-32.945-14.901-42.902z" />
<glyph unicode="&#x74;" glyph-name="presale" horiz-adv-x="1061" d="M946.505 751.067h-245.65v108.434c0 58.514-43.849 99.365-108.8 99.365h-131.986c-67.035 0-101.486-41.801-101.486-99.365v-108.434h-245.614c-62.427 0-113.006-49.591-113.006-110.775v-593.518c0-61.184 50.578-110.775 113.006-110.775h833.536c62.391 0 113.006 49.591 113.006 110.775v593.518c0 61.184-50.615 110.775-113.006 110.775zM423.753 859.502c0 34.377 31.159 35.401 36.315 35.401h116.37c20.553 0 59.246-6.144 59.246-35.401v-108.434h-211.931v108.434zM946.505-0.073h-833.536c-26.405 0-47.799 20.992-47.799 46.848v288.768h51.017c9.033 0 16.311 7.131 16.311 15.945 0 8.85-7.278 16.018-16.311 16.018h-51.017v272.786c0 25.893 21.394 46.848 47.799 46.848h833.536c26.368 0 47.799-20.955 47.799-46.848v-272.786h-358.619v14.848c0 35.913-29.696 65.061-66.341 65.061h-79.214c-36.608 0-66.341-29.147-66.341-65.061v-14.848h-209.774c-8.997 0-16.274-7.131-16.274-16.018 0-8.777 7.278-15.945 16.274-15.945h209.737v-30.866c0-35.913 29.733-65.061 66.341-65.061h79.214c36.681 0 66.341 29.147 66.341 65.061v30.866h358.619v-288.768c0.037-25.856-21.394-46.848-47.762-46.848zM603.063 382.354v-77.641c0-18.286-15.104-33.061-33.755-33.061h-79.214c-18.615 0-33.755 14.775-33.755 33.061v77.641c0 18.286 15.141 33.061 33.755 33.061h79.214c18.651 0 33.755-14.775 33.755-33.061z" />
<glyph unicode="&#x75;" glyph-name="profile" horiz-adv-x="989" d="M489.013 591.148c-77.082 0-139.758-64.936-139.758-144.772s62.676-144.772 139.758-144.772c77.047 0 139.758 64.936 139.758 144.772s-62.711 144.772-139.758 144.772zM489.013 364.632c-43.502 0-78.919 36.687-78.919 81.743s35.381 81.743 78.919 81.743c43.502 0 78.919-36.687 78.919-81.743s-35.416-81.743-78.919-81.743zM885.124 576.212c-6.991 22.493-17.761 44.879-28.849 66.842 31.991 53.848 26.942 119.455-15.254 163.134l-1.554 1.483c-23.764 24.611-55.826 38.17-90.253 38.17-24.399 0-48.622-6.956-69.914-19.88-20.974 11.299-42.796 20.727-65.218 28.107-14.124 61.617-62.393 104.377-121.079 104.377h-2.931c-59.569 0-110.451-43.502-125.67-104.201-22.14-7.345-43.679-16.561-64.441-27.683-22.14 12.394-46.963 19.103-71.751 19.103-34.004 0-64.936-12.712-87.181-35.769l-1.942-2.154c-38.594-40.042-43.043-104.66-13.453-159.85-11.758-23.058-20.657-47.81-28.566-74.929-58.191-18.397-97.103-68.643-97.103-125.528v-3.037c0-56.602 38.947-106.531 97.174-124.751 7.486-25.388 15.466-49.54 26.906-72.245-28.743-55.684-22.916-123.127 15.713-163.169l2.613-2.86c21.327-22.14 50.6-34.286 82.414-34.286 24.682 0 49.894 7.133 72.669 20.409 22.175-12.076 45.268-21.998 68.996-29.661 17.761-60.204 68.078-103.53 123.586-103.53h2.931c55.049 0 102.718 41.949 119.172 103.106 24.046 7.804 47.351 17.267 69.738 29.519 21.928-13.736 46.468-22.351 70.797-22.351 32.168 0 62.676 14.195 85.451 37.747l2.189 3.354c42.514 44.032 49.011 112.534 17.62 166.771 10.84 21.575 20.409 43.008 27.083 63.982 59.498 14.407 103.706 66.207 103.706 127.929v3.037c0 62.111-44.173 114.264-103.601 128.812zM927.85 444.398c0-36.334-29.943-65.218-69.032-68.573-12.818-1.095-25.176-10.452-28.495-23.305-7.097-27.648-18.962-56.744-35.31-86.44-6.285-11.335-5.12-25.494 2.86-35.593 24.576-31.108 24.188-74.152-0.989-100.246l-2.048-2.119c-11.405-11.794-25.953-18.008-42.090-18.008-17.090 0-34.781 6.956-49.858 19.668-9.852 8.333-23.729 9.428-34.675 2.684-28.142-17.231-58.262-30.296-89.618-38.841-11.758-3.213-20.515-13.312-22.351-25.741-5.155-35.063-28.495-70.515-63.241-70.515h-2.931c-31.673 0-61.617 31.179-68.184 71.044-2.013 12.217-10.734 22.034-22.281 25.176-30.614 8.298-60.204 21.045-87.923 37.782-4.767 2.895-10.063 4.343-15.36 4.343-6.356 0-12.712-2.083-18.044-6.144-16.172-12.394-35.663-19.491-53.46-19.491-11.017 0-26.73 2.754-38.7 15.148l-2.542 2.825c-22.351 23.164-21.998 67.16 0.706 100.246 6.956 10.099 7.698 23.481 1.66 34.18-15.642 27.683-27.401 58.474-35.699 91.454-3.001 11.935-11.652 20.974-23.375 23.093-38.559 6.956-66.030 35.946-66.030 67.372v3.037c0 31.779 27.507 61.122 66.101 68.29 11.688 2.154 19.491 11.158 22.493 23.022 8.969 35.593 21.045 66.348 36.97 93.996 6.25 10.84 5.65 24.47-1.518 34.675-20.056 28.495-27.507 70.515-3.178 95.691l2.119 2.189c10.77 11.158 26.518 17.302 44.279 17.302 18.291 0 37.606-6.603 52.966-18.079 9.675-7.239 22.599-7.945 32.945-1.766 26.695 15.89 55.155 28.036 84.604 36.087 12.182 3.319 21.116 14.089 22.457 27.083 4.131 39.548 33.827 69.42 68.996 69.42h2.931c33.898 0 60.239-28.425 63.982-69.067 1.201-13.135 10.205-24.082 22.528-27.436 30.084-8.227 59.11-20.727 86.263-37.111 10.911-6.568 24.541-5.473 34.392 2.719 14.159 11.794 31.638 18.361 49.152 18.361 18.15 0 34.922-7.027 47.846-20.374l1.589-1.483c24.082-24.929 23.446-64.3-1.624-95.762-8.086-10.169-9.075-24.505-2.648-35.911 16.419-29.202 28.99-59.18 36.687-89.088 3.284-12.818 14.83-22.175 27.613-23.305 39.089-3.425 69.067-32.627 69.067-69.455v-3.037z" />
<glyph unicode="&#x76;" glyph-name="remodel" horiz-adv-x="989" d="M972.129 764.381c-12.253 12.041-32.203 12.041-44.526 0l-169.631-165.994-144.631 141.559 169.666 165.994c12.288 12.006 12.288 31.497 0 43.502s-32.238 12.006-44.526 0l-169.631-165.959-88.982 87.111c-11.829 11.546-32.733 11.546-44.526 0l-161.721-158.226c-59.674-58.333-93.007-136.192-93.784-219.242-0.706-68.785 21.398-133.65 62.252-186.968-9.216-24.576-38.312-88.17-102.294-118.819-113.593-54.554-138.417-203.176-139.441-209.461-2.648-16.808 9.039-32.486 26.2-35.134 1.66-0.247 3.319-0.388 4.943-0.388 15.219 0 28.601 10.84 31.073 25.953 0.212 1.236 21.045 123.41 105.013 163.699 65.183 31.32 102.082 85.804 121.22 124.363 57.732-52.895 133.12-82.167 213.804-82.167 86.051 0 166.771 32.556 227.257 91.772l161.721 158.226c5.897 5.756 9.251 13.594 9.251 21.786 0 8.157-3.354 15.996-9.251 21.716l-89.017 87.146 169.631 165.959c12.253 12.006 12.253 31.532-0.071 43.573zM685.338 309.513c-48.622-47.563-113.523-73.728-182.766-73.728-67.407 0-130.26 25.176-177.011 70.903l-10.346 10.134c-47.422 46.398-73.128 108.756-72.492 175.669 0.671 66.842 27.436 129.448 75.352 176.34l139.476 136.474 88.911-86.969c0.035-0.035 0.071-0.106 0.106-0.141s0.106-0.035 0.177-0.106l188.981-184.92c0 0 0.035-0.035 0.035-0.035s0.035 0 0.035-0.035l89.017-87.075-139.476-136.51z" />
<glyph unicode="&#x77;" glyph-name="repair" horiz-adv-x="883" d="M850.909-15.272h-67.054c-0.282 0.847-0.177 1.836-0.53 2.648-18.997 73.693-218.536 750.204-257.518 864.962-15.466 45.656-41.596 106.355-89.265 106.355-48.022 0-74.434-61.758-90.147-108.12-36.687-108.544-241.982-816.199-255.223-865.845h-59.251c-12.253 0-22.14-9.887-22.14-22.14s9.887-22.14 22.14-22.14h89.935c0.035 0 0.071-0.035 0.141-0.035h631.49c0.071 0 0.106 0.035 0.177 0.035h97.245c12.217 0 22.104 9.887 22.104 22.14s-9.922 22.14-22.104 22.14zM251.162 413.113c0.6-0.071 1.095-0.353 1.66-0.353h237.074l27.542-96.256c2.472-8.58 11.723-13.524 20.692-10.946 8.969 2.542 14.195 11.617 11.758 20.198l-31.214 109.074c-2.013 6.991-8.474 11.264-15.642 11.37-0.424 0.035-0.742 0.247-1.165 0.247h-240.746c20.445 68.326 40.96 135.804 60.063 197.173h226.586c42.125-139.688 92.407-309.707 132.732-450.207h-493.462c19.597 68.573 41.666 144.102 64.124 219.701zM405.469 893.722c29.908 67.407 64.088 1.977 64.088 1.977 11.758-34.675 37.111-116.312 68.043-218.324h-205.859c32.521 103.424 59.816 185.026 73.728 216.346zM177.399 159.726h507.057c1.907 0 3.672 0.494 5.332 1.095 20.268-71.186 37.394-132.661 48.728-176.093h-609.209c11.193 43.114 28.001 104.201 48.093 174.998z" />
<glyph unicode="&#x78;" glyph-name="report-hotline" horiz-adv-x="853" d="M826.129 583.031l-367.514 356.079c-6.042 6.007-14.268 9.762-22.835 9.762h-322.935c-57.617 0-105.233-43.145-105.233-105.95v-784.794c0-58.641 42.803-111.002 105.233-111.002h612.284c58.88 0 117.282 47.138 117.282 111.002v502.682c0 8.192-10.342 16.35-16.282 22.221zM457.148 870.025l254.771-243.234 53.316-53.521h-250.266c-36.25 0-57.788 31.539-57.788 64.683v232.073zM794.556 41.097c0-24.439-27.443-48.299-53.111-48.299h-644.983c-27.273 0-41.028 23.927-41.028 48.299v818.756c0 24.269 15.019 43.383 41.028 43.383h325.871l2.662-2.526v-262.758c0-49.801 36.454-95.983 89.941-95.983h279.62v-500.873zM105.745 185.037c0-9.353 7.305-16.964 16.35-16.964h605.594c9.045 0 16.35 7.612 16.35 16.964s-7.339 16.964-16.35 16.964h-605.559c-9.079 0-16.384-7.612-16.384-16.964zM727.689 100.147h-605.559c-9.045 0-16.35-7.578-16.35-16.964 0-9.353 7.305-17.033 16.35-17.033h605.594c9.045 0 16.35 7.68 16.35 17.033 0 9.387-7.339 16.964-16.384 16.964z" />
<glyph unicode="&#x79;" glyph-name="report-maintain" d="M913.055 892.769h-97.351v52.895c0 9.781-7.768 17.655-17.337 17.655s-17.337-7.874-17.337-17.655v-52.895h-156.213v52.895c0 9.781-7.804 17.655-17.373 17.655s-17.337-7.874-17.337-17.655v-52.895h-156.213v52.895c0 9.781-7.768 17.655-17.373 17.655-9.569 0-17.337-7.874-17.337-17.655v-52.895h-156.213v52.895c0 9.781-7.768 17.655-17.337 17.655-9.604 0-17.373-7.874-17.373-17.655v-52.895h-97.315c-61.228 0-110.91-51.023-110.91-113.946v-725.592c0-62.888 49.646-113.946 110.91-113.946h802.145c61.228 0 110.91 51.023 110.91 113.946v725.592c-0.035 62.888-49.682 113.946-110.945 113.946zM979.156 33.527c0-26.624-21.010-48.128-46.892-48.128h-840.527c-25.918 0-46.892 21.504-46.892 48.128v546.887h934.312v-546.887zM979.156 613.323h-934.312v185.238c0 26.553 20.974 48.128 46.892 48.128h116.524v-77.577c0-9.71 7.768-17.655 17.373-17.655 9.569 0 17.337 7.945 17.337 17.655v77.577h156.213v-77.577c0-9.71 7.768-17.655 17.337-17.655s17.373 7.945 17.373 17.655v77.577h156.213v-77.577c0-9.71 7.768-17.655 17.337-17.655s17.373 7.945 17.373 17.655v77.577h156.213v-77.577c0-9.71 7.768-17.655 17.337-17.655s17.337 7.945 17.337 17.655v77.577h116.559c25.882 0 46.892-21.575 46.892-48.128v-185.238zM138.84 98.216h728.947c9.569 0 17.373 7.945 17.373 17.655 0 9.781-7.804 17.655-17.373 17.655h-728.947c-9.569 0-17.337-7.874-17.337-17.655 0-9.746 7.768-17.655 17.337-17.655z" />
<glyph unicode="&#x7a;" glyph-name="report-repair" d="M635.692 726.81h-540.601c-8.263 0-15.007-6.744-15.007-15.042s6.709-15.042 15.007-15.042h540.601c8.298 0 15.007 6.744 15.007 15.042s-6.709 15.042-15.007 15.042zM870.93 856.929h-820.895c-27.577 0-50.035-22.387-50.035-50.035v-820.824c0-27.648 22.457-50.070 50.035-50.070h820.895c27.648 0 49.999 22.422 49.999 50.070v820.824c0 27.648-22.351 50.035-49.999 50.035zM888.479 18.52c0-27.613-22.387-50.035-50.070-50.035h-755.889c-27.613 0-50.035 22.422-50.035 50.035v513.095h855.993v-513.095zM888.479 574.164h-855.993v200.245c0 27.648 22.422 50.070 50.035 50.070h755.889c27.683 0 50.070-22.422 50.070-50.070v-200.245zM805.853 726.81h-80.119c-8.298 0-15.007-6.744-15.007-15.042s6.674-15.042 15.007-15.042h80.119c8.298 0 15.007 6.744 15.007 15.042s-6.674 15.042-15.007 15.042zM971.034 957.069h-820.895c-27.613 0-49.999-22.387-49.999-50.070v-22.457h21.010c4.626 22.846 24.823 40.042 49.011 40.042h768.388c27.613 0 50.035-22.387 50.035-50.035v-768.388c0-24.258-17.196-44.42-40.077-49.011v-21.116h22.528c27.577 0 50.035 22.457 50.035 50.070v820.895c0 27.683-22.457 50.070-50.035 50.070z" />
</font>
</defs>
</svg>
